<svg id="visual" viewBox="0 0 960 540" width="960" height="540" xmlns="http://www.w3.org/2000/svg" xmlns:xlink="http://www.w3.org/1999/xlink" version="1.1"><rect x="0" y="0" width="960" height="540" fill="#001220"></rect><path d="M0 431L10 429.5C20 428 40 425 60 419.8C80 414.7 100 407.3 120 406.5C140 405.7 160 411.3 180 411.5C200 411.7 220 406.3 240 403.5C260 400.7 280 400.3 300 405.8C320 411.3 340 422.7 360 424.8C380 427 400 420 420 416.3C440 412.7 460 412.3 480 413.8C500 415.3 520 418.7 540 419.3C560 420 580 418 600 420.2C620 422.3 640 428.7 660 432.2C680 435.7 700 436.3 720 430.5C740 424.7 760 412.3 780 407.7C800 403 820 406 840 407.3C860 408.7 880 408.3 900 408.5C920 408.7 940 409.3 950 409.7L960 410L960 541L950 541C940 541 920 541 900 541C880 541 860 541 840 541C820 541 800 541 780 541C760 541 740 541 720 541C700 541 680 541 660 541C640 541 620 541 600 541C580 541 560 541 540 541C520 541 500 541 480 541C460 541 440 541 420 541C400 541 380 541 360 541C340 541 320 541 300 541C280 541 260 541 240 541C220 541 200 541 180 541C160 541 140 541 120 541C100 541 80 541 60 541C40 541 20 541 10 541L0 541Z" fill="#73579d"></path><path d="M0 437L10 434.3C20 431.7 40 426.3 60 427.2C80 428 100 435 120 437.7C140 440.3 160 438.7 180 440.7C200 442.7 220 448.3 240 447.8C260 447.3 280 440.7 300 439C320 437.3 340 440.7 360 442.5C380 444.3 400 444.7 420 441.2C440 437.7 460 430.3 480 428.8C500 427.3 520 431.7 540 437C560 442.3 580 448.7 600 451.7C620 454.7 640 454.3 660 451.8C680 449.3 700 444.7 720 440.8C740 437 760 434 780 435.8C800 437.7 820 444.3 840 442.5C860 440.7 880 430.3 900 426.2C920 422 940 424 950 425L960 426L960 541L950 541C940 541 920 541 900 541C880 541 860 541 840 541C820 541 800 541 780 541C760 541 740 541 720 541C700 541 680 541 660 541C640 541 620 541 600 541C580 541 560 541 540 541C520 541 500 541 480 541C460 541 440 541 420 541C400 541 380 541 360 541C340 541 320 541 300 541C280 541 260 541 240 541C220 541 200 541 180 541C160 541 140 541 120 541C100 541 80 541 60 541C40 541 20 541 10 541L0 541Z" fill="#6e67ab"></path><path d="M0 473L10 472.5C20 472 40 471 60 470.2C80 469.3 100 468.7 120 465.5C140 462.3 160 456.7 180 455C200 453.3 220 455.7 240 457.2C260 458.7 280 459.3 300 461.2C320 463 340 466 360 466.3C380 466.7 400 464.3 420 461C440 457.7 460 453.3 480 451.3C500 449.3 520 449.7 540 453C560 456.3 580 462.7 600 463C620 463.3 640 457.7 660 458.3C680 459 700 466 720 468.7C740 471.3 760 469.7 780 467.8C800 466 820 464 840 461.7C860 459.3 880 456.7 900 456.2C920 455.7 940 457.3 950 458.2L960 459L960 541L950 541C940 541 920 541 900 541C880 541 860 541 840 541C820 541 800 541 780 541C760 541 740 541 720 541C700 541 680 541 660 541C640 541 620 541 600 541C580 541 560 541 540 541C520 541 500 541 480 541C460 541 440 541 420 541C400 541 380 541 360 541C340 541 320 541 300 541C280 541 260 541 240 541C220 541 200 541 180 541C160 541 140 541 120 541C100 541 80 541 60 541C40 541 20 541 10 541L0 541Z" fill="#6976b6"></path><path d="M0 489L10 486.2C20 483.3 40 477.7 60 476C80 474.3 100 476.7 120 476.5C140 476.3 160 473.7 180 473.7C200 473.7 220 476.3 240 477.7C260 479 280 479 300 480.2C320 481.3 340 483.7 360 481.3C380 479 400 472 420 471.5C440 471 460 477 480 481.3C500 485.7 520 488.3 540 485.7C560 483 580 475 600 471.3C620 467.7 640 468.3 660 468.8C680 469.3 700 469.7 720 473.3C740 477 760 484 780 487C800 490 820 489 840 487.7C860 486.3 880 484.7 900 481C920 477.3 940 471.7 950 468.8L960 466L960 541L950 541C940 541 920 541 900 541C880 541 860 541 840 541C820 541 800 541 780 541C760 541 740 541 720 541C700 541 680 541 660 541C640 541 620 541 600 541C580 541 560 541 540 541C520 541 500 541 480 541C460 541 440 541 420 541C400 541 380 541 360 541C340 541 320 541 300 541C280 541 260 541 240 541C220 541 200 541 180 541C160 541 140 541 120 541C100 541 80 541 60 541C40 541 20 541 10 541L0 541Z" fill="#6684c0"></path><path d="M0 492L10 491.8C20 491.7 40 491.3 60 490C80 488.7 100 486.3 120 486.3C140 486.3 160 488.7 180 490.7C200 492.7 220 494.3 240 495.8C260 497.3 280 498.7 300 499C320 499.3 340 498.7 360 499.2C380 499.7 400 501.3 420 498.8C440 496.3 460 489.7 480 488.5C500 487.3 520 491.7 540 495.7C560 499.7 580 503.3 600 504C620 504.7 640 502.3 660 498.3C680 494.3 700 488.7 720 489.2C740 489.7 760 496.3 780 497C800 497.7 820 492.3 840 491C860 489.7 880 492.3 900 494.5C920 496.7 940 498.3 950 499.2L960 500L960 541L950 541C940 541 920 541 900 541C880 541 860 541 840 541C820 541 800 541 780 541C760 541 740 541 720 541C700 541 680 541 660 541C640 541 620 541 600 541C580 541 560 541 540 541C520 541 500 541 480 541C460 541 440 541 420 541C400 541 380 541 360 541C340 541 320 541 300 541C280 541 260 541 240 541C220 541 200 541 180 541C160 541 140 541 120 541C100 541 80 541 60 541C40 541 20 541 10 541L0 541Z" fill="#6692c7"></path><path d="M0 520L10 521.2C20 522.3 40 524.7 60 523.8C80 523 100 519 120 518.7C140 518.3 160 521.7 180 522.5C200 523.3 220 521.7 240 519C260 516.3 280 512.7 300 512.7C320 512.7 340 516.3 360 518.3C380 520.3 400 520.7 420 519C440 517.3 460 513.7 480 512C500 510.3 520 510.7 540 512.5C560 514.3 580 517.7 600 518.5C620 519.3 640 517.7 660 517.7C680 517.7 700 519.3 720 517.7C740 516 760 511 780 512C800 513 820 520 840 520.7C860 521.3 880 515.7 900 513.5C920 511.3 940 512.7 950 513.3L960 514L960 541L950 541C940 541 920 541 900 541C880 541 860 541 840 541C820 541 800 541 780 541C760 541 740 541 720 541C700 541 680 541 660 541C640 541 620 541 600 541C580 541 560 541 540 541C520 541 500 541 480 541C460 541 440 541 420 541C400 541 380 541 360 541C340 541 320 541 300 541C280 541 260 541 240 541C220 541 200 541 180 541C160 541 140 541 120 541C100 541 80 541 60 541C40 541 20 541 10 541L0 541Z" fill="#6aa0cd"></path></svg>