<svg id="visual" viewBox="0 0 1920 1080" width="1920" height="1080" xmlns="http://www.w3.org/2000/svg" xmlns:xlink="http://www.w3.org/1999/xlink" version="1.1"><rect x="0" y="0" width="1920" height="1080" fill="#17242e"></rect><path d="M0 854L20 852.2C40 850.3 80 846.7 120 842.2C160 837.7 200 832.3 240 824.5C280 816.7 320 806.3 360 807.8C400 809.3 440 822.7 480 835.2C520 847.7 560 859.3 600 858.2C640 857 680 843 720 841.7C760 840.3 800 851.7 840 858.5C880 865.3 920 867.7 960 867.8C1000 868 1040 866 1080 864.3C1120 862.7 1160 861.3 1200 856C1240 850.7 1280 841.3 1320 833.3C1360 825.3 1400 818.7 1440 824.7C1480 830.7 1520 849.3 1560 850.3C1600 851.3 1640 834.7 1680 827.2C1720 819.7 1760 821.3 1800 826.5C1840 831.7 1880 840.3 1900 844.7L1920 849L1920 1081L1900 1081C1880 1081 1840 1081 1800 1081C1760 1081 1720 1081 1680 1081C1640 1081 1600 1081 1560 1081C1520 1081 1480 1081 1440 1081C1400 1081 1360 1081 1320 1081C1280 1081 1240 1081 1200 1081C1160 1081 1120 1081 1080 1081C1040 1081 1000 1081 960 1081C920 1081 880 1081 840 1081C800 1081 760 1081 720 1081C680 1081 640 1081 600 1081C560 1081 520 1081 480 1081C440 1081 400 1081 360 1081C320 1081 280 1081 240 1081C200 1081 160 1081 120 1081C80 1081 40 1081 20 1081L0 1081Z" fill="#aa8dd6"></path><path d="M0 857L20 858.5C40 860 80 863 120 870.7C160 878.3 200 890.7 240 892C280 893.3 320 883.7 360 875.3C400 867 440 860 480 860.3C520 860.7 560 868.3 600 869.5C640 870.7 680 865.3 720 860.5C760 855.7 800 851.3 840 859.7C880 868 920 889 960 894.8C1000 900.7 1040 891.3 1080 880C1120 868.7 1160 855.3 1200 860C1240 864.7 1280 887.3 1320 896.2C1360 905 1400 900 1440 897.5C1480 895 1520 895 1560 891.2C1600 887.3 1640 879.7 1680 872.2C1720 864.7 1760 857.3 1800 856.5C1840 855.7 1880 861.3 1900 864.2L1920 867L1920 1081L1900 1081C1880 1081 1840 1081 1800 1081C1760 1081 1720 1081 1680 1081C1640 1081 1600 1081 1560 1081C1520 1081 1480 1081 1440 1081C1400 1081 1360 1081 1320 1081C1280 1081 1240 1081 1200 1081C1160 1081 1120 1081 1080 1081C1040 1081 1000 1081 960 1081C920 1081 880 1081 840 1081C800 1081 760 1081 720 1081C680 1081 640 1081 600 1081C560 1081 520 1081 480 1081C440 1081 400 1081 360 1081C320 1081 280 1081 240 1081C200 1081 160 1081 120 1081C80 1081 40 1081 20 1081L0 1081Z" fill="#8677ba"></path><path d="M0 894L20 893.3C40 892.7 80 891.3 120 898.7C160 906 200 922 240 924.2C280 926.3 320 914.7 360 907.7C400 900.7 440 898.3 480 902.7C520 907 560 918 600 917.7C640 917.3 680 905.7 720 901.5C760 897.3 800 900.7 840 905.8C880 911 920 918 960 925.3C1000 932.7 1040 940.3 1080 943C1120 945.7 1160 943.3 1200 938.8C1240 934.3 1280 927.7 1320 926.3C1360 925 1400 929 1440 930.2C1480 931.3 1520 929.7 1560 928.3C1600 927 1640 926 1680 921.2C1720 916.3 1760 907.7 1800 908.8C1840 910 1880 921 1900 926.5L1920 932L1920 1081L1900 1081C1880 1081 1840 1081 1800 1081C1760 1081 1720 1081 1680 1081C1640 1081 1600 1081 1560 1081C1520 1081 1480 1081 1440 1081C1400 1081 1360 1081 1320 1081C1280 1081 1240 1081 1200 1081C1160 1081 1120 1081 1080 1081C1040 1081 1000 1081 960 1081C920 1081 880 1081 840 1081C800 1081 760 1081 720 1081C680 1081 640 1081 600 1081C560 1081 520 1081 480 1081C440 1081 400 1081 360 1081C320 1081 280 1081 240 1081C200 1081 160 1081 120 1081C80 1081 40 1081 20 1081L0 1081Z" fill="#63629d"></path><path d="M0 945L20 945C40 945 80 945 120 945.2C160 945.3 200 945.7 240 947.8C280 950 320 954 360 953.3C400 952.7 440 947.3 480 945.3C520 943.3 560 944.7 600 942.8C640 941 680 936 720 936.8C760 937.7 800 944.3 840 948.7C880 953 920 955 960 959.2C1000 963.3 1040 969.7 1080 965.3C1120 961 1160 946 1200 946.2C1240 946.3 1280 961.7 1320 961.3C1360 961 1400 945 1440 938.2C1480 931.3 1520 933.7 1560 936C1600 938.3 1640 940.7 1680 947C1720 953.3 1760 963.7 1800 967.8C1840 972 1880 970 1900 969L1920 968L1920 1081L1900 1081C1880 1081 1840 1081 1800 1081C1760 1081 1720 1081 1680 1081C1640 1081 1600 1081 1560 1081C1520 1081 1480 1081 1440 1081C1400 1081 1360 1081 1320 1081C1280 1081 1240 1081 1200 1081C1160 1081 1120 1081 1080 1081C1040 1081 1000 1081 960 1081C920 1081 880 1081 840 1081C800 1081 760 1081 720 1081C680 1081 640 1081 600 1081C560 1081 520 1081 480 1081C440 1081 400 1081 360 1081C320 1081 280 1081 240 1081C200 1081 160 1081 120 1081C80 1081 40 1081 20 1081L0 1081Z" fill="#434d81"></path><path d="M0 977L20 983.7C40 990.3 80 1003.7 120 1009.7C160 1015.7 200 1014.3 240 1012.7C280 1011 320 1009 360 1003.3C400 997.7 440 988.3 480 984.5C520 980.7 560 982.3 600 985.3C640 988.3 680 992.7 720 992.5C760 992.3 800 987.7 840 985.7C880 983.7 920 984.3 960 981.7C1000 979 1040 973 1080 971.2C1120 969.3 1160 971.7 1200 978.5C1240 985.3 1280 996.7 1320 1001.7C1360 1006.7 1400 1005.3 1440 1007.2C1480 1009 1520 1014 1560 1011C1600 1008 1640 997 1680 995.8C1720 994.7 1760 1003.3 1800 1001.8C1840 1000.3 1880 988.7 1900 982.8L1920 977L1920 1081L1900 1081C1880 1081 1840 1081 1800 1081C1760 1081 1720 1081 1680 1081C1640 1081 1600 1081 1560 1081C1520 1081 1480 1081 1440 1081C1400 1081 1360 1081 1320 1081C1280 1081 1240 1081 1200 1081C1160 1081 1120 1081 1080 1081C1040 1081 1000 1081 960 1081C920 1081 880 1081 840 1081C800 1081 760 1081 720 1081C680 1081 640 1081 600 1081C560 1081 520 1081 480 1081C440 1081 400 1081 360 1081C320 1081 280 1081 240 1081C200 1081 160 1081 120 1081C80 1081 40 1081 20 1081L0 1081Z" fill="#243865"></path><path d="M0 1037L20 1033.7C40 1030.3 80 1023.7 120 1020.8C160 1018 200 1019 240 1021.2C280 1023.3 320 1026.7 360 1031.7C400 1036.7 440 1043.3 480 1045.8C520 1048.3 560 1046.7 600 1045C640 1043.3 680 1041.7 720 1039.5C760 1037.3 800 1034.7 840 1031.7C880 1028.7 920 1025.3 960 1023.2C1000 1021 1040 1020 1080 1023.5C1120 1027 1160 1035 1200 1038.2C1240 1041.3 1280 1039.7 1320 1036C1360 1032.3 1400 1026.7 1440 1022.8C1480 1019 1520 1017 1560 1019.3C1600 1021.7 1640 1028.3 1680 1029.2C1720 1030 1760 1025 1800 1028C1840 1031 1880 1042 1900 1047.5L1920 1053L1920 1081L1900 1081C1880 1081 1840 1081 1800 1081C1760 1081 1720 1081 1680 1081C1640 1081 1600 1081 1560 1081C1520 1081 1480 1081 1440 1081C1400 1081 1360 1081 1320 1081C1280 1081 1240 1081 1200 1081C1160 1081 1120 1081 1080 1081C1040 1081 1000 1081 960 1081C920 1081 880 1081 840 1081C800 1081 760 1081 720 1081C680 1081 640 1081 600 1081C560 1081 520 1081 480 1081C440 1081 400 1081 360 1081C320 1081 280 1081 240 1081C200 1081 160 1081 120 1081C80 1081 40 1081 20 1081L0 1081Z" fill="#002549"></path></svg>